<svg xmlns="http://www.w3.org/2000/svg" fill="none" viewBox="0 0 24 24" id="Queue-Music-Fill--Streamline-Outlined-Fill-Material" height="42" width="42"><desc>Queue Music Fill Streamline Icon: https://streamlinehq.com</desc><path fill="#fefdff" d="M16.0735 20c-0.799 0 -1.47765 -0.27965 -2.036 -0.839 -0.55835 -0.55935 -0.8375 -1.2385 -0.8375 -2.0375 0 -0.799 0.27225 -1.47765 0.81675 -2.036C14.5611 14.52915 15.22215 14.25 16 14.25c0.26615 0 0.52015 0.025 0.762 0.075 0.242 0.05 0.47135 0.13335 0.688 0.25V6H22v1.775h-3.05V17.15c0 0.79165 -0.27965 1.4646 -0.839 2.01875C17.55165 19.7229 16.8725 20 16.0735 20ZM3 16v-1.5h7.65v1.5H3Zm0 -4.25v-1.5h11.825v1.5H3ZM3 7.5v-1.5h11.825v1.5H3Z" stroke-width="0.5"></path></svg>