<svg xmlns="http://www.w3.org/2000/svg" fill="none" viewBox="0 0 24 24" id="Sound-Sampler-Fill--Streamline-Outlined-Fill-Material" height="42" width="42"><desc>Sound Sampler Fill Streamline Icon: https://streamlinehq.com</desc><path fill="#ffffff" d="M4.15 18.1498c-0.683335 -0.85 -1.2125 -1.79585 -1.5875 -2.8375S2 13.16645 2 11.9998c0 -2.63335 0.879165 -4.89165 2.6375 -6.775C6.39585 3.34147 8.55 2.28314 11.1 2.049805v1.5c-2.13335 0.233335 -3.93335 1.145835 -5.4 2.737495C4.233335 7.87895 3.5 9.78315 3.5 11.9998c0 0.95 0.154165 1.85835 0.4625 2.725 0.308335 0.86665 0.729165 1.65835 1.2625 2.375l-1.075 1.05Zm7.85 3.85c-1.21665 0 -2.36665 -0.20415 -3.45 -0.6125 -1.08335 -0.40835 -2.06665 -0.97915 -2.95 -1.7125l1.05 -1.075c0.75 0.6 1.575 1.06665 2.475 1.4 0.9 0.33335 1.85835 0.5 2.875 0.5s1.97915 -0.17085 2.8875 -0.5125c0.90835 -0.34165 1.7375 -0.8125 2.4875 -1.4125l1.05 1.075c-0.86665 0.73335 -1.84585 1.30835 -2.9375 1.725 -1.09165 0.41665 -2.25415 0.625 -3.4875 0.625Zm7.875 -3.85 -1.075 -1.05c0.53335 -0.71665 0.95 -1.50835 1.25 -2.375 0.3 -0.86665 0.45 -1.775 0.45 -2.725 0 -2.2 -0.725 -4.1 -2.175 -5.7 -1.45 -1.599995 -3.25 -2.51666 -5.4 -2.749995v-1.5c2.56665 0.233335 4.72085 1.291665 6.4625 3.174995C21.12915 7.10815 22 9.36645 22 11.9998c0 1.16665 -0.1875 2.27085 -0.5625 3.3125 -0.375 1.04165 -0.89585 1.9875 -1.5625 2.8375Zm-10.2 -2.125v-8.55l6.7 4.275 -6.7 4.275Z" stroke-width="0.5"></path></svg>