<svg xmlns="http://www.w3.org/2000/svg" fill="none" viewBox="0 0 24 24" id="Volume-Up-Fill--Streamline-Outlined-Fill-Material" height="24" width="24"><desc>Volume Up Fill Streamline Icon: https://streamlinehq.com</desc><path fill="#fefdff" d="M14 20.7251v-1.55c1.61665 -0.46665 2.9375 -1.3625 3.9625 -2.6875S19.5 13.65845 19.5 11.9751c0 -1.68335 -0.50835 -3.19165 -1.525 -4.525 -1.01665 -1.33335 -2.34165 -2.225 -3.975 -2.675v-1.55c2.06665 0.466665 3.75 1.5125 5.05 3.1375 1.3 1.625 1.95 3.49585 1.95 5.6125s-0.65 3.9875 -1.95 5.6125c-1.3 1.625 -2.98335 2.67085 -5.05 3.1375Zm-11 -5.725v-6h4l5 -5v16l-5 -5H3Zm10.5 1.2v-8.425c0.91665 0.28335 1.64585 0.81665 2.1875 1.6 0.54165 0.78335 0.8125 1.65835 0.8125 2.625 0 0.95 -0.275 1.81665 -0.825 2.6 -0.55 0.78335 -1.275 1.31665 -2.175 1.6Z" stroke-width="0.5"></path></svg>